<svg data-v-423bf9ae="" xmlns="http://www.w3.org/2000/svg" viewBox="0 0 438 90" class="iconLeft"><!----><!----><!----><g data-v-423bf9ae="" id="c6e64184-8337-4fbd-b07e-86ffdfadb10e" fill="#7C24A8" transform="matrix(5.110732222809175,0,0,5.110732222809175,113.81092651673006,-25.221461531794162)"><path d="M6.10 17.18L5.59 15.34L2.44 15.34L1.90 17.18L0.18 17.18L2.69 8.43L5.32 8.43L7.83 17.18L6.10 17.18ZM2.80 14.03L5.21 14.03L4.07 10.04L3.95 10.04L2.80 14.03ZM10.81 15.92L10.81 15.92Q11.09 15.97 11.47 16.00L11.47 16.00L11.37 17.16L11.37 17.16Q10.74 17.33 10.30 17.33L10.30 17.33L10.30 17.33Q9.69 17.33 9.39 17.05L9.39 17.05L9.39 17.05Q9.09 16.77 9.09 16.17L9.09 16.17L9.09 8.08L10.81 7.87L10.81 15.92ZM15.71 15.99L15.71 15.99Q16.86 16.13 17.40 16.30L17.40 16.30L17.40 16.30Q17.95 16.48 18.16 16.78L18.16 16.78L18.16 16.78Q18.37 17.08 18.37 17.67L18.37 17.67L18.37 17.67Q18.37 18.35 18.08 18.75L18.08 18.75L18.08 18.75Q17.79 19.15 17.17 19.33L17.17 19.33L17.17 19.33Q16.55 19.52 15.48 19.52L15.48 19.52L15.48 19.52Q14.70 19.52 13.95 19.40L13.95 19.40L13.95 19.40Q13.20 19.29 12.61 19.08L12.61 19.08L12.84 17.82L12.84 17.82Q13.55 18.00 14.08 18.09L14.08 18.09L14.08 18.09Q14.62 18.17 15.16 18.17L15.16 18.17L15.16 18.17Q16.13 18.17 16.83 18.03L16.83 18.03L16.83 17.12L16.83 17.12Q15.43 17.02 14.83 16.88L14.83 16.88L14.83 16.88Q14.24 16.74 14.24 16.49L14.24 16.49L14.63 15.12L14.63 15.12Q13.45 14.99 12.97 14.41L12.97 14.41L12.97 14.41Q12.49 13.82 12.49 12.56L12.49 12.56L12.49 12.56Q12.49 11.59 12.77 11.03L12.77 11.03L12.77 11.03Q13.05 10.47 13.67 10.22L13.67 10.22L13.67 10.22Q14.29 9.97 15.37 9.97L15.37 9.97L15.37 9.97Q16.38 9.97 16.97 10.16L16.97 10.16L18.00 9.37L18.86 10.19L18.06 11.14L18.06 11.14Q18.28 11.69 18.28 12.56L18.28 12.56L18.28 12.56Q18.28 13.47 18.04 14.01L18.04 14.01L18.04 14.01Q17.79 14.56 17.26 14.83L17.26 14.83L17.26 14.83Q16.72 15.09 15.78 15.13L15.78 15.13L15.71 15.99ZM14.17 11.77L14.17 14.10L15.71 14.10L15.71 14.10Q16.21 14.10 16.41 13.93L16.41 13.93L16.41 13.93Q16.60 13.76 16.60 13.33L16.60 13.33L16.60 11.00L15.06 11.00L15.06 11.00Q14.56 11.00 14.36 11.17L14.36 11.17L14.36 11.17Q14.17 11.34 14.17 11.77L14.17 11.77ZM23.09 17.33L23.09 17.33Q21.83 17.33 21.15 17.01L21.15 17.01L21.15 17.01Q20.47 16.69 20.18 15.91L20.18 15.91L20.18 15.91Q19.89 15.13 19.89 13.68L19.89 13.68L19.89 13.68Q19.89 12.22 20.18 11.45L20.18 11.45L20.18 11.45Q20.47 10.67 21.15 10.35L21.15 10.35L21.15 10.35Q21.83 10.02 23.09 10.02L23.09 10.02L23.09 10.02Q24.36 10.02 25.04 10.35L25.04 10.35L25.04 10.35Q25.72 10.67 26.00 11.45L26.00 11.45L26.00 11.45Q26.28 12.22 26.28 13.68L26.28 13.68L26.28 13.68Q26.28 15.13 25.99 15.91L25.99 15.91L25.99 15.91Q25.70 16.69 25.03 17.01L25.03 17.01L25.03 17.01Q24.35 17.33 23.09 17.33L23.09 17.33ZM21.71 15.97L23.83 15.97L23.83 15.97Q24.21 15.97 24.34 15.90L24.34 15.90L24.34 15.90Q24.47 15.82 24.47 15.61L24.47 15.61L24.47 11.38L22.36 11.38L22.36 11.38Q21.98 11.38 21.85 11.46L21.85 11.46L21.85 11.46Q21.71 11.54 21.71 11.75L21.71 11.75L21.71 15.97ZM31.70 10.02L31.70 10.02Q32.75 10.02 33.31 10.35L33.31 10.35L33.31 10.35Q33.87 10.67 34.10 11.45L34.10 11.45L34.10 11.45Q34.33 12.22 34.33 13.68L34.33 13.68L34.33 13.68Q34.33 15.15 34.09 15.94L34.09 15.94L34.09 15.94Q33.85 16.73 33.29 17.06L33.29 17.06L33.29 17.06Q32.73 17.39 31.70 17.39L31.70 17.39L31.70 17.39Q30.48 17.39 29.88 17.08L29.88 17.08L29.88 19.45L28.15 19.61L28.15 10.18L28.97 10.18L29.33 10.79L29.33 10.79Q29.65 10.36 30.21 10.19L30.21 10.19L30.21 10.19Q30.76 10.02 31.70 10.02L31.70 10.02ZM32.51 15.67L32.51 11.38L30.49 11.38L30.49 11.38Q30.14 11.38 30.01 11.45L30.01 11.45L30.01 11.45Q29.88 11.52 29.88 11.69L29.88 11.69L29.88 16.02L31.88 16.02L31.88 16.02Q32.24 16.02 32.38 15.95L32.38 15.95L32.38 15.95Q32.51 15.88 32.51 15.67L32.51 15.67ZM36.20 17.18L36.20 8.01L37.90 7.87L37.90 10.60L37.90 10.60Q38.33 10.30 38.87 10.16L38.87 10.16L38.87 10.16Q39.41 10.02 40.12 10.02L40.12 10.02L40.12 10.02Q41.10 10.02 41.62 10.35L41.62 10.35L41.62 10.35Q42.14 10.68 42.14 11.31L42.14 11.31L42.14 17.18L40.42 17.18L40.42 11.44L39.06 11.44L39.06 11.44Q38.40 11.44 38.16 11.60L38.16 11.60L38.16 11.60Q37.93 11.76 37.93 12.19L37.93 12.19L37.93 17.18L36.20 17.18ZM47.10 10.02L47.10 10.02Q48.58 10.02 49.20 10.50L49.20 10.50L49.20 10.50Q49.83 10.98 49.83 12.10L49.83 12.10L49.83 17.18L49.00 17.18L48.55 16.48L48.55 16.48Q47.56 17.33 46.07 17.33L46.07 17.33L46.07 17.33Q44.90 17.33 44.38 16.83L44.38 16.83L44.38 16.83Q43.86 16.32 43.86 15.18L43.86 15.18L43.86 15.18Q43.86 14.20 44.16 13.73L44.16 13.73L44.16 13.73Q44.46 13.27 45.28 13.10L45.28 13.10L45.28 13.10Q46.10 12.92 47.84 12.92L47.84 12.92L48.10 12.92L48.10 11.48L48.10 11.48Q47.63 11.34 46.84 11.34L46.84 11.34L46.84 11.34Q45.67 11.34 44.39 11.69L44.39 11.69L44.17 10.46L44.17 10.46Q44.74 10.26 45.54 10.14L45.54 10.14L45.54 10.14Q46.33 10.02 47.10 10.02L47.10 10.02ZM47.01 16.07L47.01 16.07Q47.64 16.07 47.87 15.91L47.87 15.91L47.87 15.91Q48.10 15.75 48.10 15.32L48.10 15.32L48.10 13.94L46.54 13.94L46.54 13.94Q45.89 13.94 45.66 14.11L45.66 14.11L45.66 14.11Q45.43 14.27 45.43 14.71L45.43 14.71L45.43 16.07L47.01 16.07ZM52.02 17.18L52.02 10.18L52.84 10.18L53.30 10.88L53.30 10.88Q53.84 10.44 54.50 10.23L54.50 10.23L54.50 10.23Q55.15 10.02 55.94 10.02L55.94 10.02L55.94 10.02Q56.92 10.02 57.44 10.35L57.44 10.35L57.44 10.35Q57.96 10.68 57.96 11.31L57.96 11.31L57.96 17.18L56.24 17.18L56.24 11.44L54.78 11.44L54.78 11.44Q54.18 11.44 53.96 11.59L53.96 11.59L53.96 11.59Q53.75 11.75 53.75 12.15L53.75 12.15L53.75 17.18L52.02 17.18ZM63.43 11.34L62.24 11.34L62.24 15.92L62.24 15.92Q62.66 15.99 63.20 16.00L63.20 16.00L63.11 17.16L63.11 17.16Q62.31 17.33 61.74 17.33L61.74 17.33L61.74 17.33Q61.12 17.33 60.82 17.05L60.82 17.05L60.82 17.05Q60.52 16.77 60.52 16.17L60.52 16.17L60.52 11.34L59.61 11.34L59.61 10.18L60.52 10.18L60.52 8.76L62.24 8.33L62.24 10.18L63.43 10.18L63.43 11.34Z"></path></g><defs data-v-423bf9ae=""><linearGradient data-v-423bf9ae="" gradientTransform="rotate(25)" id="c9c1c71e-8f70-43fb-a29f-73ed803c188a" x1="0%" y1="0%" x2="100%" y2="0%"><stop data-v-423bf9ae="" offset="0%" style="stop-color: #7C24A8; stop-opacity: 1;"></stop><stop data-v-423bf9ae="" offset="100%" style="stop-color: #7C24A8; stop-opacity: 1;"></stop></linearGradient></defs><g data-v-423bf9ae="" id="91645d7f-0420-418d-9cfc-7c477222425d" transform="matrix(1.0251036771621391,0,0,1.0251036771621391,-3.460672899485708,-7.193398728761359)" stroke="none" fill="#7C24A8"><path d="M88.035 26.959L68.858 7.78 53.62 19.083l-7.143-.003L31.141 7.704l-19.176 19.18L3.794 46.18l8.167 23.395 19.306 15.194 2.555-1.671v3.361l1.301-4.211 8.294-5.425L45.26 95.5h9.479l1.836-18.551 8.435 5.476 1.281 4.207v-3.375l2.442 1.585L88.038 69.65l8.167-23.395-8.17-19.296zM56.12 23.698l-6.281 6.13-5.858-6.144 2.603-2.603 6.617.003 2.919 2.614zM31.375 82.309L13.657 68.364 5.937 46.25l7.717-18.227 17.681-17.684 13.298 9.864-3.05 3.05v9.863l1.049-.606v4.93l-1.049-.606v4.921l-7.75 7.838h-.01v.01l-.024.025.024.024v31.054l-2.448 1.603zm4.448-30.656l5.087 5.087-5.087 16.468V51.653zm5.76 2.933l-4.965-4.965 4.965-5.021v9.986zm-5.534 24.666l5.768-18.669 1.38 13.994-7.148 4.675zM52.928 93.5h-5.855l-1.767-17.913.091-.059-.114-.174-1.7-17.235V26.165l6.203 6.508 6.797-6.633v13.903l-.041-.043v17.082L52.928 93.5zm5.614-38.748v-9.985l4.965 5.021-4.965 4.964zm5.75-2.921v21.37L59.303 56.82l4.989-4.989zm-7.495 22.877l1.438-14.53 5.87 19.275-7.308-4.745zm29.545-6.269l-17.72 13.946-2.331-1.513V49.831l.035-.035-7.743-7.831V36.96l-1.012.585v-4.93l1.012.584V23.22l-3.254-2.915 13.334-9.891 17.681 17.684 7.717 18.227-7.719 22.114zM46.5 59.995h6.917v2H46.5v-2zm.773 6.88h5.823v2h-5.823v-2zm.747 6.816h4.475v2H48.02v-2zm.52 6.751h3.29v2h-3.29v-2zm5.939-34.109v2H45.75v-2h8.729zm-8.396 7.192h7.833v2h-7.833v-2zm15.758-18.446l-3.257 1.881-1.012.585v-4.93l1.012.584 3.257 1.88zm-23.478-.104l3.221-1.859 1.049-.606v4.93l-1.049-.606-3.221-1.859z"></path></g><!----></svg>